<svg xmlns="http://www.w3.org/2000/svg" viewBox="0 0 128 128" role="img" aria-labelledby="title desc">
  <title id="title">Nilam Invoice coconut tree logo</title>
  <desc id="desc">A Kerala-inspired coconut tree with coconuts and green landscape.</desc>
  <defs>
    <linearGradient id="sky" x1="0" y1="0" x2="0" y2="1">
      <stop offset="0%" stop-color="#f8fffb"/>
      <stop offset="100%" stop-color="#e4f5e8"/>
    </linearGradient>
    <linearGradient id="leaf" x1="0" y1="0" x2="1" y2="1">
      <stop offset="0%" stop-color="#79d48f"/>
      <stop offset="100%" stop-color="#1c6b47"/>
    </linearGradient>
    <linearGradient id="trunk" x1="0" y1="0" x2="0" y2="1">
      <stop offset="0%" stop-color="#9c6a3f"/>
      <stop offset="100%" stop-color="#6c4327"/>
    </linearGradient>
  </defs>
  <rect width="128" height="128" rx="28" fill="url(#sky)"/>
  <path d="M10 104c15-10 31-14 48-12 18 2 32 9 60 8v16H10z" fill="#c7dd7f"/>
  <path d="M6 113c18-4 35-3 55 2 24 6 39 7 61 2v11H6z" fill="#79bc66"/>
  <path d="M70 97c2-26-1-49-9-67" fill="none" stroke="url(#trunk)" stroke-width="10" stroke-linecap="round"/>
  <path d="M61 34c-14-6-24-6-34 4 13 1 24 4 34 13" fill="url(#leaf)"/>
  <path d="M61 33c-10-12-21-18-35-16 9 11 17 19 31 23" fill="url(#leaf)"/>
  <path d="M63 31c4-14 13-24 28-29-1 16-7 27-23 35" fill="url(#leaf)"/>
  <path d="M66 34c15-8 30-8 44 2-14 3-28 7-42 16" fill="url(#leaf)"/>
  <path d="M66 33c11-2 23 1 34 10-13 4-26 5-37 12" fill="url(#leaf)"/>
  <circle cx="58" cy="41" r="6" fill="#8d542d"/>
  <circle cx="67" cy="43" r="6" fill="#8d542d"/>
  <circle cx="63" cy="50" r="6" fill="#8d542d"/>
</svg>
